<svg xmlns="http://www.w3.org/2000/svg" width="21" height="19" fill="none"><path fill="#000001" d="M10.238 7.096c-1.227 0-2.379-.224-3.434-.668C5.481 5.872 4.81 5.16 4.81 4.313c0-.043.007-.087.02-.128.072-.242.883-2.346 6.815-1.905a.434.434 0 0 1 .397.435V6.09c3.407-.418 5.406-1.542 5.406-2.498 0-1.259-3.345-2.661-8.144-2.661-3.109 0-5.607.539-7.036 1.517-.926.635-1.31 1.764-.957 2.811a.439.439 0 0 1-.265.556.426.426 0 0 1-.544-.27C.02 4.116.538 2.58 1.792 1.722 3.381.633 5.98.057 9.303.057c4.363 0 9 1.239 9 3.535 0 2.05-3.687 3.224-7.34 3.478-.244.017-.487.026-.726.026ZM5.672 4.399c.082.561.938 1.003 1.458 1.221 1.138.48 2.409.673 3.776.579l.281-.022a.434.434 0 0 1 0-.032v-3.02c-4.344-.248-5.344.99-5.515 1.274Z"/><path fill="#000001" d="M9.872 7.096c-1.229 0-2.637-.26-3.624-.702C4.968 5.822 4.32 5.091 4.32 4.22c0-.045.007-.089.019-.132.07-.248.854-2.41 6.59-1.958.216.017.383.213.383.448v3.994c0 .223-.15.411-.352.444a6.88 6.88 0 0 1-1.089.08Zm1.026-.524h.005-.005ZM5.154 4.309c.078.576.906 1.03 1.41 1.255 1.052.471 2.7.72 3.92.608V2.999c-4.198-.255-5.165 1.018-5.33 1.31Z"/><path fill="#000001" d="M11.133 18.158c-3.571 0-7.396-.977-9.785-4.425-.67-.967-1.024-2.154-1.024-3.43V4.509c0-.21.148-.39.35-.424a.414.414 0 0 1 .461.29l.149.462c.51 1.53 2.256 3.35 7.654 3.35h.116c.06.002 4.47.134 10.705-1.904a.405.405 0 0 1 .372.064c.107.08.17.21.17.346v9.393a.43.43 0 0 1-.27.402c-.301.117-4.397 1.67-8.898 1.67ZM1.156 6.378v3.925c0 1.096.3 2.11.87 2.93 4.617 6.667 15.58 3.198 17.442 2.548V7.276C13.38 9.181 9.218 9.052 9.04 9.046c-4.608.035-6.828-1.253-7.884-2.668Z"/><path fill="#000001" d="M14.808 18.158c-.276 0-.5-.21-.5-.47v-3.083c0-.26.224-.47.5-.47s.5.21.5.47v3.083c0 .26-.224.47-.5.47ZM12.81 18.158c-.276 0-.5-.192-.5-.428v-5.178c0-.236.224-.428.5-.428s.5.191.5.428v5.178c0 .236-.224.428-.5.428ZM9.812 18.158c-.276 0-.5-.2-.5-.448v-3.128c0-.247.224-.447.5-.447s.5.2.5.447v3.128c0 .247-.224.448-.5.448ZM7.816 18.158c-.276 0-.5-.2-.5-.447v-5.14c0-.247.224-.447.5-.447s.5.2.5.446v5.142c0 .246-.224.446-.5.446ZM4.82 17.152c-.276 0-.5-.186-.5-.415V14.55c0-.23.224-.415.5-.415s.5.186.5.415v2.187c0 .23-.225.415-.5.415ZM17.804 17.152c-.276 0-.5-.18-.5-.4v-4.228c0-.22.224-.4.5-.4s.5.18.5.4v4.228c0 .22-.224.4-.5.4ZM2.822 14.135c-.276 0-.5-.162-.5-.363v-2.29c0-.201.224-.364.5-.364s.5.163.5.364v2.29c0 .2-.224.363-.5.363ZM17.804 8.102c-.276 0-.5-.19-.5-.425V3.498c0-.234.224-.424.5-.424s.5.19.5.424v4.18c0 .234-.224.424-.5.424ZM4.82 9.107c-.276 0-.5-.187-.5-.418V4.497c0-.23.224-.418.5-.418s.5.187.5.418V8.69c0 .231-.224.418-.5.418Z"/></svg>