<svg xmlns="http://www.w3.org/2000/svg" width="21" height="21" fill="none"><path fill="#E1A72C" d="M5.297 9.102c-.495 0-.958-.2-1.307-.56a1.929 1.929 0 0 1-.54-1.35c0-.133.1-.237.228-.237.129 0 .23.104.23.237 0 .384.146.744.408 1.014.54.56 1.426.56 1.967 0l7.35-7.597a1.809 1.809 0 0 1 2.613 0l1.118 1.156a.24.24 0 0 1 0 .337.222.222 0 0 1-.325 0L15.92.946a1.363 1.363 0 0 0-1.967 0L6.608 8.542c-.353.36-.816.56-1.311.56ZM13.45 19.148c-.797 0-1.55-.319-2.119-.907a3.168 3.168 0 0 1-.89-2.214 3.16 3.16 0 0 1 .881-2.218l7.617-7.923c.254-.264.396-.616.396-.99 0-.376-.142-.728-.396-.992l-1.392-1.45a.24.24 0 0 1 .009-.328.217.217 0 0 1 .311.005l1.388 1.444c.338.352.525.82.525 1.32 0 .5-.187.968-.525 1.32l-7.617 7.918a2.714 2.714 0 0 0-.752 1.894c0 .713.272 1.385.757 1.89.485.5 1.121.773 1.802.773h.013a2.5 2.5 0 0 0 1.81-.792l.93-.977a1.745 1.745 0 0 1 2.536 0l1.629 1.695a.236.236 0 0 1 0 .329.214.214 0 0 1-.316 0L18.42 17.25a1.314 1.314 0 0 0-.953-.412c-.36 0-.698.148-.952.412l-.93.977a2.937 2.937 0 0 1-2.122.93c-.004-.009-.008-.009-.013-.009Z"/><path fill="#E1A72C" d="M17.987 4.074a.566.566 0 0 1-.4-.152c-.296-.297-.15-.886.33-1.37.205-.207.445-.363.67-.439.285-.095.53-.055.69.106.16.161.196.408.106.696-.075.226-.23.468-.436.675-.31.312-.665.484-.96.484Zm.9-1.512c-.1 0-.345.076-.61.343-.32.322-.36.614-.33.66.044.03.33-.01.655-.333.32-.323.36-.615.33-.66a.098.098 0 0 0-.045-.01Z"/><path fill="#E1A72C" d="M1.087 20.163a.637.637 0 0 1-.461-1.072L17.733.553c.29-.316.687-.492 1.11-.501.43-.01.83.153 1.13.459.3.302.466.705.457 1.137-.01.432-.185.826-.498 1.119L1.52 19.99a.626.626 0 0 1-.433.172ZM18.877.516h-.024c-.3.004-.576.13-.784.353L.963 19.407a.175.175 0 0 0 .004.241c.065.065.17.07.24.005L19.618 2.428a1.09 1.09 0 0 0 .35-.789 1.1 1.1 0 0 0-.322-.798 1.052 1.052 0 0 0-.77-.325Z"/></svg>