<svg xmlns="http://www.w3.org/2000/svg" width="30" height="36" fill="none"><path fill="#E1A72C" d="M15.932 9.553c.513-.38 1.057-.945 1.695-1.659.907-1.015 1.815-2.203 1.676-3.317-.076-.61-.459-1.15-1.139-1.606-.596-.4-1.188-.52-1.759-.356-.85.245-1.622 1.121-2.297 2.606a28.307 28.307 0 0 0-.715 1.673 7.99 7.99 0 0 0-.257.794.622.622 0 0 0-.373.264L4.912 19.97a.637.637 0 0 0-.094.457 5.98 5.98 0 0 0-.377.31c-.397.352-.822.802-1.298 1.335-.907 1.015-1.816 2.203-1.677 3.317.076.61.46 1.15 1.14 1.606.185.125.371.223.556.293.407.154.81.175 1.202.063.85-.245 1.622-1.121 2.297-2.606.421-.927.788-1.761.968-2.45a.623.623 0 0 0 .359-.262l7.85-12.017a.638.638 0 0 0 .094-.463Zm-1.31-4.092c.595-1.307 1.265-2.1 1.939-2.294.274-.079.555-.064.847.048.145.054.292.133.444.234.543.365.834.757.89 1.2.11.888-.762 1.995-1.535 2.86-.63.704-1.154 1.24-1.613 1.581l-.299-.2c.725-.573 1.607-1.476 2.513-2.894a.29.29 0 0 0-.084-.396.28.28 0 0 0-.392.084c-.934 1.463-1.839 2.343-2.541 2.867l-.356-.239c.132-.597.596-2.005 2.227-4.165a.29.29 0 0 0-.053-.402.28.28 0 0 0-.397.054c-1.613 2.135-2.13 3.505-2.295 4.165l-.226-.15c.156-.596.483-1.364.932-2.353ZM6.148 24.505c-.594 1.307-1.264 2.1-1.938 2.294-.41.118-.833.026-1.292-.282-.543-.364-.834-.756-.889-1.199-.11-.889.762-1.996 1.535-2.86.619-.693 1.136-1.224 1.59-1.565l.364.244c-.75.564-1.69 1.49-2.657 3.004a.289.289 0 0 0 .139.425.28.28 0 0 0 .336-.113c1.003-1.569 1.97-2.467 2.691-2.974l.242.162c-.07.443-.429 1.921-2.262 4.349a.29.29 0 0 0 .126.443.281.281 0 0 0 .324-.094c1.644-2.178 2.16-3.655 2.32-4.357l.295.198c-.158.591-.482 1.351-.924 2.325ZM15.367 9.7 7.516 21.717a.061.061 0 0 1-.085.017l-2.03-1.362a.06.06 0 0 1-.025-.039.061.061 0 0 1 .009-.046l7.85-12.018a.06.06 0 0 1 .04-.026.06.06 0 0 1 .045.01l2.03 1.36a.063.063 0 0 1 .017.086ZM12.982 25.05l7.851-12.017a.64.64 0 0 0 .094-.463c.512-.38 1.056-.945 1.694-1.66.907-1.014 1.815-2.202 1.676-3.316-.076-.61-.459-1.15-1.139-1.606-.596-.4-1.188-.52-1.759-.356-.85.245-1.622 1.121-2.296 2.606a28.313 28.313 0 0 0-.716 1.673 7.967 7.967 0 0 0-.257.793.622.622 0 0 0-.373.265l-7.85 12.018a.637.637 0 0 0-.094.457 6.021 6.021 0 0 0-.378.31c-.397.351-.821.802-1.298 1.335-.907 1.015-1.815 2.203-1.676 3.317.076.61.459 1.15 1.139 1.606.186.125.372.223.557.293.407.154.809.175 1.201.063.85-.245 1.623-1.121 2.297-2.606.421-.927.788-1.762.969-2.45a.623.623 0 0 0 .358-.262Zm6.635-16.572c.594-1.307 1.264-2.1 1.938-2.294.275-.08.555-.064.848.047.144.055.292.133.443.235.544.364.835.756.89 1.199.11.889-.762 1.995-1.535 2.86-.63.704-1.154 1.241-1.612 1.582l-.3-.201c.725-.572 1.607-1.475 2.513-2.893a.29.29 0 0 0-.084-.397.28.28 0 0 0-.391.085c-.935 1.463-1.84 2.343-2.542 2.866l-.355-.238c.131-.597.595-2.005 2.226-4.165a.29.29 0 0 0-.053-.402.28.28 0 0 0-.397.053c-1.613 2.136-2.13 3.505-2.295 4.166l-.225-.151c.155-.595.482-1.363.931-2.352ZM10.38 23.303l7.85-12.017a.06.06 0 0 1 .04-.026.06.06 0 0 1 .045.008l2.03 1.362a.063.063 0 0 1 .017.086l-7.85 12.017a.061.061 0 0 1-.085.018l-2.03-1.362a.06.06 0 0 1-.026-.04.06.06 0 0 1 .009-.046Zm.762 4.219c-.594 1.307-1.264 2.1-1.938 2.294-.41.118-.832.026-1.29-.282-.544-.365-.835-.757-.89-1.2-.111-.888.762-1.995 1.534-2.86.62-.693 1.137-1.223 1.59-1.564l.364.244c-.75.563-1.69 1.49-2.656 3.004a.289.289 0 0 0 .138.424.28.28 0 0 0 .337-.112c1.002-1.569 1.97-2.467 2.69-2.975l.242.162c-.07.444-.428 1.922-2.262 4.35a.29.29 0 0 0 .126.443.28.28 0 0 0 .324-.095c1.645-2.177 2.16-3.655 2.321-4.356l.295.197c-.159.592-.482 1.352-.925 2.326ZM28.293 10.61c-.076-.609-.459-1.15-1.139-1.605-.596-.4-1.188-.52-1.759-.356-.85.244-1.622 1.121-2.296 2.606a28.29 28.29 0 0 0-.715 1.673 7.966 7.966 0 0 0-.258.793.622.622 0 0 0-.373.265l-7.85 12.017a.637.637 0 0 0-.094.458 5.971 5.971 0 0 0-.377.31c-.398.351-.822.802-1.299 1.335-.907 1.015-1.815 2.203-1.676 3.317.076.61.46 1.15 1.139 1.606.186.125.372.222.557.293.407.154.81.175 1.202.063.85-.245 1.622-1.121 2.297-2.606.421-.927.787-1.762.968-2.45a.623.623 0 0 0 .359-.262l7.85-12.017a.64.64 0 0 0 .094-.464c.512-.38 1.056-.944 1.694-1.658.907-1.015 1.816-2.203 1.676-3.317ZM15.137 30.54c-.593 1.307-1.263 2.1-1.937 2.294-.41.118-.833.026-1.292-.282-.543-.365-.834-.757-.889-1.2-.111-.888.762-1.995 1.535-2.86.619-.692 1.136-1.223 1.59-1.564l.364.244c-.75.564-1.69 1.49-2.657 3.004a.29.29 0 0 0 .139.425.28.28 0 0 0 .336-.113c1.002-1.569 1.97-2.467 2.69-2.975l.242.162c-.069.444-.428 1.922-2.262 4.35a.29.29 0 0 0 .127.443.28.28 0 0 0 .323-.094c1.645-2.178 2.16-3.656 2.321-4.357l.295.197c-.159.592-.482 1.352-.925 2.326Zm9.22-14.806-7.85 12.017a.061.061 0 0 1-.085.018l-2.03-1.362a.06.06 0 0 1-.025-.04.06.06 0 0 1 .008-.045l7.851-12.018a.06.06 0 0 1 .039-.026.06.06 0 0 1 .045.009l2.03 1.361a.063.063 0 0 1 .017.086Zm.228-.61-.3-.2c.725-.572 1.607-1.475 2.513-2.893a.29.29 0 0 0-.084-.396.28.28 0 0 0-.391.084c-.935 1.463-1.84 2.343-2.542 2.867l-.355-.24c.131-.596.595-2.004 2.226-4.164a.29.29 0 0 0-.053-.402.28.28 0 0 0-.396.053c-1.613 2.136-2.13 3.505-2.296 4.166l-.225-.151c.156-.595.482-1.364.931-2.352.594-1.307 1.264-2.1 1.938-2.294.275-.08.555-.064.848.047.144.055.292.133.444.235.543.364.834.756.889 1.198.111.89-.762 1.996-1.535 2.861-.629.704-1.153 1.241-1.612 1.582Z"/></svg>