<svg xmlns="http://www.w3.org/2000/svg" width="56" height="20" fill="none"><path fill="#E1A72C" d="M32.623 8.32a.972.972 0 0 1 .034-.204 1.151 1.151 0 0 1 1.032-.816c.556-.031.986.376.955.907a1.057 1.057 0 0 1-.335.698c-.2.192-.46.306-.73.322-.557.031-.986-.376-.956-.906Zm.715.633.225.023.318-1.385-.225-.024-.318 1.386ZM12.961 4.915a2.639 2.639 0 0 1-.046.365c-.153.772-.633 1.48-1.388 2.047-.2.15-.416.287-.642.409l-.08.063.063-.054c-1.007.54-2.238.792-3.485.7-2.49-.185-4.29-1.696-4.189-3.516a2.605 2.605 0 0 1 .094-.568c.118-.429.34-.834.654-1.204-.037.028-.073.053-.109.081l.12-.093c.191-.223.416-.432.674-.626 1.1-.826 2.61-1.234 4.146-1.12 2.49.184 4.29 1.695 4.188 3.516Zm-9.557-.34c-.023.114-.037.23-.043.343-.098 1.742 1.645 3.19 4.054 3.368 1.47.11 2.913-.273 3.972-1.047.348-.408.59-.87.688-1.368.024-.12.039-.237.046-.355.098-1.754-1.659-3.26-4.122-3.442-1.258-.093-2.471.177-3.435.692-.627.515-1.029 1.136-1.16 1.809Zm8.944 8.895c.01.12.011.241.005.362-.102 1.82-2.086 3.544-4.613 4.01-2.706.497-5.042-.655-5.209-2.566a2.506 2.506 0 0 1-.005-.363c.011-.197.044-.392.097-.585.143-.518.434-1.017.837-1.47-.009.008-.019.014-.028.021l.034-.026c.835-.935 2.156-1.67 3.674-1.95 2.704-.494 5.04.656 5.208 2.567Zm-9.656 1.433c-.006.115-.004.23.005.341.16 1.827 2.416 2.922 5.03 2.441 1.092-.2 2.08-.642 2.847-1.225.556-.615.897-1.317.938-2.026a2.492 2.492 0 0 0-.005-.352c-.163-1.873-2.456-2.992-5.12-2.502a7.029 7.029 0 0 0-2.199.796c-.88.708-1.444 1.605-1.496 2.527Zm11.333-10.02-.001.032a.82.82 0 0 0 .014.277l13.468 1.363.689.027c1.922-.032 8.676-.137 14.924-.132 12.318.01 12.294.419 12.284.615-.003.06-.009.14-.38.264l-.526.415c-1.269.83-20.84 2.755-26.319 3.28l-1.416.118-13.245 2.79c-.109 1.703-1.314 3.313-3.068 4.316a7.741 7.741 0 0 1-3.302 1.44c-3.265.588-6.084-1.012-6.296-3.577a3.688 3.688 0 0 1-.007-.52c.075-1.346.864-2.652 2.083-3.633a7.365 7.365 0 0 1 2.593-1.761C2.986 9.698 1.278 7.857 1.4 5.713c.01-.173.031-.349.066-.525.215-1.114.89-2.103 1.843-2.853l.014-.01c.234-.257.5-.498.791-.719C5.45.595 7.224.086 8.979.21c3.013.213 5.183 2.222 5.046 4.674ZM7.14 9.886c-2.978.536-5.324 2.732-5.457 5.103-.01.17-.007.342.006.51.209 2.517 2.993 4.093 6.207 3.514 2.622-.473 4.755-2.233 5.316-4.267a3.992 3.992 0 0 0 .14-1.232l-.005-.087.152-.008 14.02-2.953.547-.046-1.02-1.61-13.475 3.795-.362.077-.02-.062c-.55-1.722-2.393-2.842-4.682-2.855a7.306 7.306 0 0 1-.888.05 8.079 8.079 0 0 0-.48.07Zm6.088-2.768c-.48.69-1.152 1.283-1.943 1.737l-.01.008a6.662 6.662 0 0 1-1.477.87c1.728.34 3.052 1.35 3.532 2.765l.218-.046 12.07-3.4-12.39-1.934ZM8.944.37c-1.71-.12-3.438.374-4.74 1.358-1.017.769-1.693 1.79-1.902 2.87-.033.171-.054.344-.064.515-.134 2.373 1.98 4.319 4.916 4.526a7.392 7.392 0 0 0 1.353-.032c2.192-.255 4.132-1.503 4.945-3.176l.03-.062.442.06 13.849 2.077.034.004 1.177 1.832c15.468-1.481 25.728-2.76 26.244-3.267-.528-.535-13.923-.554-27.054-.334l-.7-.028-13.52-1.368-.045-.005-.015-.04a.86.86 0 0 1-.036-.377l.003-.031C13.992 2.52 11.88.576 8.945.37h-.001Z"/></svg>