<svg xmlns="http://www.w3.org/2000/svg" width="22" height="22" fill="none"><path stroke="#E1A72C" stroke-miterlimit="10" d="M21 11.107c0 5.554-4.472 10.056-9.988 10.056-5.517 0-9.989-4.502-9.989-10.056 0-5.554 4.472-10.056 9.989-10.056C16.528 1.051 21 5.553 21 11.107Z"/><path stroke="#E1A72C" stroke-miterlimit="10" d="M20 11.61c0 4.72-3.801 8.547-8.49 8.547-4.69 0-8.49-3.826-8.49-8.547 0-4.72 3.8-8.548 8.49-8.548 4.689 0 8.49 3.827 8.49 8.548"/><path stroke="#E1A72C" stroke-miterlimit="10" d="M8.015 11.107c0 .556-.447 1.006-.999 1.006-.551 0-.998-.45-.998-1.006 0-.555.447-1.005.998-1.005.552 0 1 .45 1 1.005ZM16.006 11.107c0 .556-.448 1.006-1 1.006-.55 0-.998-.45-.998-1.006 0-.555.447-1.005.999-1.005.551 0 .999.45.999 1.005ZM12.01 15.13c0 .555-.448 1.005-1 1.005-.551 0-.998-.45-.998-1.005 0-.556.447-1.006.998-1.006.552 0 1 .45 1 1.006ZM12.01 7.085c0 .555-.448 1.005-1 1.005-.551 0-.998-.45-.998-1.005 0-.556.447-1.006.998-1.006.552 0 1 .45 1 1.006Z"/></svg>