<svg xmlns="http://www.w3.org/2000/svg" width="83" height="28" fill="none"><path fill="#000001" d="M26.459 15.996h-4.962c-.21 0-.316-.254-.21-.518l.896-4.665h-4.476V9.153c.088-.14 3.064-.256 3.232-.337l.818-.445.063-.033.358-.196.63-.345c.03-.02.048-.05.048-.08v-1.05h2.223v1.052c0 .031.018.06.048.08l.412.224.092.05.436.231.591.436 3.581.593c.262.105-.088.822 0 .962s.019.363 0 .518h-4.476l1.06 4.416c.104.262.283.768-.165.767 0 0 .145.01-.2 0Z"/><path fill="#000001" d="M23.575 13.333h.839v8.4h-.839v-8.4Z"/><path fill="#000001" d="M21.165 21.733h5.661c.25.001.49.1.666.275a.928.928 0 0 1 .276.659h-7.545c0-.247.099-.484.275-.66a.95.95 0 0 1 .667-.274ZM32.222 20.333a.442.442 0 0 1-.323-.136.442.442 0 0 1-.136-.323V8.892c0-.124.045-.232.136-.323a.441.441 0 0 1 .323-.136h8.721c.125 0 .233.046.323.136.09.091.136.199.136.323v2.397a.441.441 0 0 1-.136.323.441.441 0 0 1-.323.136h-5.1v1.071h4.726c.125 0 .232.046.323.136.09.091.136.199.136.323v2.21a.441.441 0 0 1-.136.323.441.441 0 0 1-.323.136h-4.726v1.071h5.236c.125 0 .233.046.323.136.09.091.136.199.136.323v2.397a.441.441 0 0 1-.136.323.441.441 0 0 1-.323.136h-8.857Zm19.04 0a.442.442 0 0 1-.323-.136.441.441 0 0 1-.136-.323v-7.7h-2.244v.526c0 1.372-.062 2.545-.187 3.52-.113.963-.351 1.75-.714 2.362-.351.601-.884 1.043-1.598 1.326-.703.284-1.643.425-2.822.425a.5.5 0 0 1-.34-.136.441.441 0 0 1-.136-.323v-2.686c0-.249.153-.402.459-.459.295-.056.521-.226.68-.51.17-.283.295-.64.374-1.07.09-.431.147-.907.17-1.429.023-.521.034-1.042.034-1.564V8.892c0-.124.045-.232.136-.323a.441.441 0 0 1 .323-.136h9.656c.125 0 .232.046.323.136.09.091.136.199.136.323v10.982a.441.441 0 0 1-.136.323.442.442 0 0 1-.323.136h-3.332Zm6.128 0a.442.442 0 0 1-.323-.136.441.441 0 0 1-.136-.323V8.892c0-.124.045-.232.136-.323a.441.441 0 0 1 .323-.136h3.332c.125 0 .232.046.323.136.09.091.136.199.136.323v3.247h1.105c1.643 0 2.918.329 3.825.986.918.658 1.377 1.672 1.377 3.043 0 .907-.21 1.672-.629 2.295-.408.624-1.003 1.094-1.785 1.411-.77.306-1.7.46-2.788.46H57.39Zm3.791-3.162h1.105c.272 0 .47-.096.595-.289.125-.192.187-.419.187-.68 0-.306-.08-.532-.238-.68a.749.749 0 0 0-.544-.238h-1.105v1.887Zm8.195 3.162a.442.442 0 0 1-.323-.136.442.442 0 0 1-.136-.323V8.892c0-.124.046-.232.136-.323a.441.441 0 0 1 .323-.136h8.721c.125 0 .233.046.323.136.091.091.136.199.136.323v2.397a.441.441 0 0 1-.136.323.441.441 0 0 1-.323.136h-5.1v1.071h4.726c.125 0 .233.046.323.136.091.091.136.199.136.323v2.21a.441.441 0 0 1-.136.323.441.441 0 0 1-.323.136h-4.726v1.071h5.236c.125 0 .233.046.323.136.091.091.136.199.136.323v2.397a.441.441 0 0 1-.136.323.441.441 0 0 1-.323.136h-8.857ZM4.374 20.333a.406.406 0 0 1-.272-.102.406.406 0 0 1-.085-.39L7.808 8.993a.865.865 0 0 1 .238-.374c.125-.124.3-.187.527-.187h3.689c.227 0 .402.063.527.187.125.125.204.25.238.374l3.791 10.846a.375.375 0 0 1-.102.391.346.346 0 0 1-.255.102h-3.145c-.215 0-.374-.045-.476-.136a.954.954 0 0 1-.187-.289l-.408-1.122H8.59l-.408 1.122a.955.955 0 0 1-.187.29c-.09.09-.25.135-.476.135H4.374Zm5.083-4.862h1.921l-.969-3.162-.952 3.162Z"/></svg>