<svg xmlns="http://www.w3.org/2000/svg" width="270" height="101" fill="none"><path fill="#656980" d="M16.014 59.087H7.819l-1.43 4.677H0l9.097-25.04h5.622l9.165 25.04h-6.422l-1.448-4.678ZM9.25 54.425h5.333l-2.675-8.685-2.658 8.685ZM45.4 55.286c-.08 1.742-.545 3.285-1.397 4.626-.852 1.33-2.05 2.362-3.594 3.096-1.533.733-3.288 1.1-5.264 1.1-3.26 0-5.827-1.072-7.7-3.216-1.874-2.144-2.811-5.17-2.811-9.08v-1.239c0-2.453.42-4.597 1.26-6.432.852-1.846 2.073-3.267 3.663-4.265 1.59-1.009 3.43-1.514 5.52-1.514 3.01 0 5.428.803 7.257 2.408 1.828 1.594 2.867 3.795 3.117 6.604H39.49c-.046-1.525-.426-2.62-1.142-3.284-.715-.665-1.805-.998-3.27-.998-1.488 0-2.579.562-3.271 1.686-.693 1.123-1.057 2.918-1.09 5.383v1.771c0 2.671.329 4.58.987 5.727.67 1.147 1.818 1.72 3.442 1.72 1.374 0 2.424-.327 3.151-.98.727-.654 1.113-1.692 1.159-3.113H45.4ZM67.189 43.384h-7.445v20.38h-5.98v-20.38h-7.308v-4.66H67.19v4.66ZM76.099 63.764h-5.963v-25.04h5.963v25.04ZM89.88 56.954l4.94-18.23h6.679l-8.348 25.04H86.61l-8.28-25.04h6.627l4.923 18.23ZM118.705 53.153h-9.404v5.968h11.107v4.643h-17.086v-25.04h17.12v4.66h-11.141v5.28h9.404v4.49Z"/><path fill="#fff" d="M123.454 63.747v-25.04h6.524c2.669 0 4.685.55 6.048 1.65 1.374 1.09 2.061 2.678 2.061 4.764 0 1.514-.38 2.77-1.141 3.767-.761.997-1.834 1.634-3.22 1.909 1.568.206 2.874.894 3.918 2.064 1.045 1.158 1.568 2.488 1.568 3.99 0 2.132-.687 3.818-2.062 5.056-1.362 1.227-3.265 1.84-5.707 1.84h-7.989Zm.92-12.365v11.437h7.172c2.101 0 3.748-.522 4.94-1.566 1.204-1.054 1.806-2.51 1.806-4.368 0-1.582-.579-2.883-1.738-3.904-1.158-1.032-2.708-1.565-4.651-1.6h-7.529Zm0-.93h5.945c2.26 0 3.964-.435 5.111-1.306 1.147-.883 1.72-2.247 1.72-4.093 0-3.555-2.322-5.36-6.967-5.418h-5.809v10.818ZM162.074 53.102c0 2.166-.386 4.087-1.159 5.76-.761 1.663-1.851 2.953-3.271 3.87-1.419.906-3.055 1.36-4.906 1.36-2.794 0-5.054-1.004-6.78-3.01-1.726-2.007-2.59-4.713-2.59-8.118v-3.612c0-2.155.381-4.07 1.142-5.744.772-1.674 1.868-2.964 3.288-3.87 1.431-.917 3.066-1.376 4.906-1.376 1.851 0 3.487.46 4.906 1.376 1.431.906 2.533 2.202 3.305 3.887.773 1.674 1.159 3.583 1.159 5.727v3.75Zm-.92-3.784c0-3.027-.761-5.452-2.283-7.275-1.522-1.834-3.578-2.752-6.167-2.752-2.555 0-4.594.912-6.116 2.735-1.522 1.811-2.283 4.282-2.283 7.412v3.663c0 1.995.341 3.761 1.023 5.297.692 1.525 1.675 2.7 2.947 3.526 1.272.826 2.76 1.238 4.463 1.238 2.59 0 4.639-.911 6.15-2.734 1.51-1.823 2.266-4.311 2.266-7.464v-3.646ZM174.373 50.246l8.007-11.54h1.159l-8.586 12.263 8.909 12.778h-1.141l-8.348-12.056-8.381 12.056h-1.107l8.909-12.778-8.586-12.263h1.159l8.006 11.54Z"/></svg>